<svg width="226" height="260" viewBox="0 0 226 260" fill="none" xmlns="http://www.w3.org/2000/svg">
<path d="M205.228 133.651L193.608 124.557L189.82 114.199L134.752 141.734L117.322 179.372L112.774 206.401L142.329 217.516L162.215 185.139L163.296 208.927L158.749 226.357L142.329 255.912L225.689 254.649L180.977 241.009L195.628 167.5L205.228 133.651Z" fill="#EB7333"/>
<path d="M173.148 145.523L161.528 170.026L162.215 185.139M162.215 185.139L163.296 208.927L158.749 226.357L142.329 255.912L225.689 254.649L180.977 241.009L195.628 167.5L205.228 133.651L193.608 124.557L189.82 114.199L134.752 141.734L117.322 179.372L112.774 206.401L142.329 217.516L162.215 185.139Z" stroke="#170800" stroke-width="2"/>
<path d="M205.487 97.4668L216.317 101.926L223.643 110.846L213.45 121.357L201.794 123.198L200.082 126.723L189.865 123.521L186.585 122.493H182.859L173.794 131.86L173.19 139.112L157.092 148.445L145.169 146.458L152.551 123.198L163.622 119.204L174.382 112.034L205.487 97.4668Z" fill="#EB7333"/>
<path d="M174.382 112.034L163.622 119.204L152.551 123.198L145.169 146.458L157.092 148.445L173.19 139.112L173.794 131.86L182.859 122.493H186.585L189.865 123.521M174.382 112.034L205.487 97.4668L216.317 101.926L223.643 110.846L213.45 121.357L201.794 123.198L200.082 126.723L189.865 123.521M174.382 112.034L186.585 115.446L189.865 123.521" stroke="#170800" stroke-width="2"/>
<path d="M32.9495 254.651L2.63757 256.671L41.0189 219.189L52.9061 233.431V224.084L108.227 194.277L160.012 225.601L164.812 233.431L162.791 243.788L150.918 258.187H105.449L103.175 254.651H49.6866H32.9495Z" fill="#EB7333"/>
<path d="M105.449 258.187L103.175 254.651H49.6866M105.449 258.187H150.918L162.791 243.788L164.812 233.431L160.012 225.601L108.227 194.277L52.9061 224.084V233.431M105.449 258.187V246.819L108.227 238.988M52.9061 233.431L41.0189 219.189L2.63757 256.671L32.9495 254.651H49.6866M52.9061 233.431L55.1375 234.495M108.227 238.988L69.3257 241.262L55.1375 234.495M108.227 238.988L121.616 236.967L133.236 241.262M55.1375 234.495L49.6866 243.788V254.651" stroke="#170800" stroke-width="2"/>
<path fill-rule="evenodd" clip-rule="evenodd" d="M180.439 67.496V60.6212L184.6 56.4601L194.121 51.0431L196.266 34.6879L176.693 16.4551L154.975 19.1367L135.402 33.3472L115.828 46.217H92.5023L87.1404 41.659L67.0305 44.0721L47.994 62.5725L24.0171 95.131L19.9097 112.384L6.35437 132.923V210.973L8.40901 213.437L8.75764 234.853H15.7067L16.0088 237.421L27.087 238.529L28.1948 228.307L30.763 227.955L31.3672 223.473L36.6779 218.894L52.8094 243.555L70.3889 217.489L98.2736 201.122L121.892 202.555L128.977 206.269L134.617 212.047L150.95 182.936L161.014 136.259L168.895 88.3702L180.439 67.496ZM24.8105 199.391L27.087 168.865L39.2438 149.79V122.448L49.4174 116.09L52.8094 159.598L41.8681 182.936L35.0422 206.703L24.8105 199.391Z" fill="#EB7333"/>
<path d="M150.95 57.9073L157.282 71.2954L174.65 67.496H180.439M180.439 67.496V60.6212L184.6 56.4601L194.121 51.0431L196.266 34.6879L176.693 16.4551L154.975 19.1367L135.402 33.3472L115.828 46.217H92.5023L87.1404 41.659L67.0305 44.0721L47.994 62.5725L24.0171 95.131L19.9097 112.384L6.35437 132.923V210.973L8.40901 213.437L8.75764 234.853H15.7067L16.0088 237.421L27.087 238.529L28.1948 228.307L30.763 227.955L31.3672 223.473L36.6779 218.894M180.439 67.496L168.895 88.3702L161.014 136.259L150.95 182.936L134.617 212.047L128.977 206.269L121.892 202.555L98.2736 201.122L70.3889 217.489L52.8094 243.555L36.6779 218.894M73.8976 85.2509L59.591 109.731L49.4174 116.09M49.4174 116.09L39.2438 122.448V149.79L27.087 168.865L24.8105 199.391L35.0422 206.703M49.4174 116.09L52.8094 159.598L41.8681 182.936L35.0422 206.703M35.0422 206.703L36.8983 208.03L41.8681 214.42L36.6779 218.894" stroke="#170800" stroke-width="2"/>
<path d="M139.368 67.496L142.584 62.5725L150.95 57.9073L157.282 71.2954L174.65 67.496H180.439V60.6212L184.6 56.4601L194.121 51.0431L196.266 34.6879L176.693 16.4551L154.975 19.1367L135.402 33.3472L115.828 46.217H104.165H98.3338M98.3338 46.217H92.5023L87.1404 41.659L67.0305 44.0721L47.994 62.5725L24.0171 95.131L19.9097 112.384L6.35437 132.923V210.973L8.40901 213.437L8.75764 234.853H15.7067L16.0088 237.421L27.087 238.529L28.1948 228.307L30.763 227.955L31.3672 223.473L41.8681 214.42L36.8983 208.03L24.8105 199.391L27.087 168.865L39.2438 149.79V122.448L59.591 109.731L73.8976 85.2509L80.9049 81.8003L77.3972 104.309L90.8437 117.755M98.3338 46.217L102.829 56.4601L115.828 67.496" stroke="#170800" stroke-width="2"/>
<path d="M144.689 79.1104L149.483 59.7072V53.8848L176.299 67.3617L185.986 72.8367L191.355 80.2069L196.725 87.577L207.464 96.2107L188.091 109.898L176.299 112.438L165.981 119.795L171.119 122.674L102.077 162.429L89.4596 175.602L78.485 173.183L72.4952 171.863L55.5308 168.124L47.3644 170.566L43.5737 164.425L46.7624 163.57L42.9959 156.722L39.2294 149.874L72.7848 137.091L114.786 112.438L144.689 79.1104Z" fill="#EB7333"/>
<path d="M46.7624 163.57L43.5737 164.425L47.3644 170.566L55.5308 168.124M46.7624 163.57L107.672 147.25M46.7624 163.57L42.9959 156.722M95.091 156.296L55.5308 168.124M55.5308 168.124L72.4952 171.863M89.4596 175.602L102.077 162.429L171.119 122.674L165.981 119.795L176.299 112.438L188.091 109.898L207.464 96.2107L196.725 87.577M89.4596 175.602L78.485 173.183M89.4596 175.602L99.3885 183.254L116.362 185.82L131.943 180.552M196.725 87.577L191.355 80.2069M196.725 87.577L182.827 98.7381L160.506 112.438M42.9959 156.722L39.2294 149.874L72.7848 137.091L114.786 112.438L144.689 79.1104L149.483 59.7072V53.8848L176.299 67.3617L185.986 72.8367L191.355 80.2069M42.9959 156.722L79.6443 147.25M89.4596 141.485L151.662 117.901M144.689 113.689L174.193 96.2107L191.355 80.2069M87.3718 195.916L75.3848 183.254L72.4952 171.863M72.4952 171.863L78.485 173.183M96.9951 189.163L85.5146 181.565L78.485 173.183" stroke="#170800" stroke-width="2"/>
<path d="M157.281 71.2954L150.95 57.9073L142.583 62.5725L139.367 67.496H115.827L102.828 56.4601L98.3329 46.217H104.164H115.827L135.401 33.3472L154.974 19.1367L176.692 16.4551L196.265 34.6879L194.12 51.0431L184.599 56.4601L180.438 60.6212V67.496H174.649L157.281 71.2954Z" fill="#EB7333"/>
<path d="M139.367 67.496L142.583 62.5725L150.95 57.9073L157.281 71.2954L174.649 67.496H180.438V60.6212L184.599 56.4601L194.12 51.0431L196.265 34.6879L176.692 16.4551L154.974 19.1367L135.401 33.3472L115.827 46.217H104.164H98.3329L102.828 56.4601L115.827 67.496" stroke="#170800" stroke-width="2"/>
<path d="M154.118 87.5092L164.368 69.7557L181.047 48.2714L201.852 48.6214L205.867 36.0842L200.546 23.0932L185.005 4.59491L162.441 1.09322L155.441 13.2176L146.464 9.76662L142.214 17.1279L135.718 13.3779L132.468 19.007L126.955 17.5561L132.267 22.3551L138.915 19.842L141.513 21.3419L145.544 21.3599L143.294 25.257L137.464 25.3551L132.915 30.2343L143.392 31.0873L146.441 28.806L145.24 33.8862L140.044 30.8862L138.544 33.4842L133.763 34.7653L140.691 38.7653L142.441 35.7342L147.637 38.7342L153.369 32.806L155.101 33.806L151.101 40.7342L142.088 45.3455L154.118 87.5092Z" fill="#190901"/>
<path d="M164.368 69.7557L181.047 48.2714L201.852 48.6214L205.867 36.0842L200.546 23.0932L185.005 4.59491L162.441 1.09322L155.441 13.2176L146.464 9.76662L142.214 17.1279L135.718 13.3779L132.468 19.007L126.955 17.5561L132.267 22.3551L138.915 19.842L141.513 21.3419L145.544 21.3599L143.294 25.257L137.464 25.3551L132.915 30.2343L143.392 31.0873L146.441 28.806L145.24 33.8862L140.044 30.8862L138.544 33.4842L133.521 36.9949" stroke="#EB7333" stroke-width="2"/>
<path d="M179.828 72.6505L185.464 61.0593L194.724 56.2404L197.186 52.9099L201.485 48.4637L192.794 36.5176L185.464 39.2137L181.951 34.2987L175.804 35.9458L175.071 33.2137L164.821 50.9673L165.786 57.2974L158.522 58.8775L163.866 70.6227L173.245 67.3775L179.828 72.6505Z" fill="#EB7333"/>
<path d="M186.499 61.5843L180.503 73.0388L173.246 67.3776L159.792 71.3492" stroke="#140100" stroke-width="2"/>
</svg>
