<svg width="762" height="447" viewBox="0 0 762 447" fill="none" xmlns="http://www.w3.org/2000/svg">
<path d="M215.534 269.533L188.777 284.421L175.685 283.16L167.504 276.517L164.052 268.846L165.742 259.92L173.994 258.147L178.003 255.541L182.012 252.934L189.012 254.921L191.261 257.072L195.624 264.182L207.59 258.546L211.363 250.119L225.788 251.082L228.186 262.245L215.534 269.533Z" fill="#EB7333"/>
<path d="M173.994 258.147L165.742 259.92L164.052 268.846L167.504 276.517L175.685 283.16L188.777 284.421L215.534 269.533L228.186 262.245L225.788 251.082L211.363 250.119L207.59 258.546L195.624 264.182M173.994 258.147L178.956 264.698L187.764 267.883L195.624 264.182M173.994 258.147L178.003 255.541L182.012 252.934L189.012 254.921L191.261 257.072L195.624 264.182" stroke="#170800" stroke-width="2"/>
<path d="M196.699 410.123L202.632 428.182L210.238 441.215L211.116 442.719H195.035L194.777 442.106L190.401 431.719L190.336 431.563L190.324 431.396L188.969 410.538L179.479 390.758L179.38 390.553V383.445L175.653 375.726L175.486 375.38L175.594 375.011L179.42 361.89L179.63 361.17H190.744L190.928 361.938L196.672 385.993L196.699 386.107V410.123Z" fill="#EB7333" stroke="#170800" stroke-width="2"/>
<path d="M77.8488 339.773C77.9854 339.784 78.1576 339.804 78.3527 339.83C78.7465 339.882 79.2852 339.965 79.9279 340.07C81.2158 340.281 82.9552 340.587 84.8644 340.933C88.6844 341.624 93.2045 342.476 96.2013 343.051L97.0822 343.22L97.0099 344.114L95.0138 368.592L95.005 368.697L94.9747 368.799L92.254 377.864L92.1993 378.045L92.0831 378.193L78.1281 396.018L78.5284 399.347L90.3527 416.836L90.3986 416.904L90.4327 416.979L96.8868 431L105.466 443.854L106.504 445.409H88.5245V437.743L84.9122 433.771L84.712 433.551L84.6652 433.257L82.631 420.521L72.0148 405.853L64.1066 396.368L63.7755 395.972L63.9073 395.472L66.7277 384.823V374.633L63.9093 364.303L63.8058 363.922L63.9904 363.572C66.0265 359.723 69.1049 353.939 71.7228 349.098C73.0313 346.678 74.2268 344.49 75.1202 342.896C75.5663 342.101 75.9406 341.446 76.2179 340.982C76.3555 340.753 76.4766 340.558 76.5734 340.414C76.6203 340.344 76.6721 340.269 76.7247 340.203C76.7502 340.171 76.7892 340.124 76.838 340.076C76.8575 340.057 76.9929 339.917 77.2101 339.835L77.3048 339.805C77.3949 339.78 77.4669 339.772 77.4962 339.77C77.5512 339.764 77.6004 339.764 77.6359 339.764C77.7075 339.764 77.7819 339.768 77.8488 339.773Z" fill="#EB7333" stroke="#170800" stroke-width="2"/>
<path d="M258.936 258.146L281.965 282.859L282.234 283.147V289.588L281.941 289.881L278.017 293.803L277.696 294.123L277.244 294.094L258.431 292.869H241.062L235.718 301.003L235.7 301.029L235.682 301.055L217.043 325.811L217.037 325.818L217.03 325.826L197.526 350.681L193.411 363.985L193.286 364.389L192.91 364.581L181.874 370.218L181.66 370.328H145.766L145.673 370.311L131.512 367.626L102.359 366.169L91.0197 370.269L90.8546 370.328H79.0187L78.7443 369.766L73.8273 359.682L60.2814 370.12L60.2013 370.182L60.1105 370.226L31.5812 384.181L21.7745 395.817L19.3038 406.934L19.2911 406.988L19.2736 407.04L14.9083 419.815V431.594L21.6271 439.835L22.9572 441.467H4.70325V432.207L1.35754 426.124L1.11633 425.687L1.32141 425.231L9.75403 406.504V382.913L10.1066 382.613L24.7169 370.187L29.9718 352.884L32.4855 333.097L32.4874 333.085L34.4562 318.946L30.1339 312.349L24.797 305.446L24.588 305.177V294.348L24.6798 294.148L27.8361 287.285L27.9698 286.995L28.2472 286.836L38.924 280.708L41.3536 279.313L40.3556 281.932L36.545 291.93L38.0743 298.044L43.0109 300.51L56.255 291.055L56.3927 290.957L56.5548 290.909L70.7784 286.743L70.9357 286.698L71.0978 286.704L109.602 288.175L109.811 288.183L109.999 288.274L117.908 292.106L147.288 293.551L158.781 285.653L159.037 285.478H186.335L211.36 273.093L233.183 260.333L230.335 257.823H216.332L206.607 259.524L205.956 257.661L225.33 247.121L225.554 247H240.997L241.297 247.366L245.318 252.28L253.298 250.458L253.902 250.319L254.295 250.799L258.709 256.189L258.936 256.466V258.146Z" fill="#EB7333" stroke="#170800" stroke-width="2"/>
<path d="M147.835 348.226L150.568 334.832L184.76 345.767L182.298 360.255L169.442 382.398V393.06L162.057 405.634L159.049 420.396L162.057 432.698L169.442 444.999H154.946L150.568 430.511L152.758 418.756L154.946 405.634L152.758 400.167V387.866L157.407 382.398V373.65L150.568 362.989L147.835 348.226Z" fill="#EB7333"/>
<path d="M150.568 334.832L147.835 348.226L150.568 362.989L157.407 373.65V382.398L152.758 387.866V400.167L154.946 405.634L152.758 418.756L150.568 430.511L154.946 444.999H169.442L162.057 432.698L159.049 420.396L162.057 405.634L169.442 393.06V382.398L182.298 360.255L184.76 345.767" stroke="#170800" stroke-width="2"/>
<path d="M320.117 173.395L341.521 166.869L357.391 162.014L365.033 187.078L326.196 183.238L320.117 173.395Z" fill="#EB7333" stroke="#170800" stroke-width="2"/>
<path d="M350.446 164.66L321.159 173.596L308.624 169.613L302.021 161.399L300.257 153.174L303.785 144.803H312.224L316.692 143.097L321.159 141.391L327.585 144.803L329.332 147.378L332.104 155.246L344.987 152.25L350.446 144.803L364.347 148.775V160.193L350.446 164.66Z" fill="#EB7333"/>
<path d="M312.224 144.803H303.785L300.257 153.174L302.021 161.399L308.624 169.613L321.159 173.596L350.446 164.66L364.347 160.193V148.775L350.446 144.803L344.987 152.25L332.104 155.246M312.224 144.803L315.699 152.25L323.642 157.214L332.104 155.246M312.224 144.803L316.692 143.097L321.159 141.391L327.585 144.803L329.332 147.378L332.104 155.246" stroke="#170800" stroke-width="2"/>
<path d="M437.302 307.182V182.027L492.234 98.001L504.734 148.001L533.195 255.533L583.208 370.044L630.158 418.002L761.734 441.001H417.734L431.688 398.873L437.302 307.182Z" fill="#EB7333" stroke="#170800" stroke-width="2"/>
<path d="M471.216 33.9609L480.842 48.501L497.805 53.3672L493.594 100.666L499.048 110.404L492.442 117.398L496.06 142.601L497.84 144.788L496.285 144.169L497.805 154.747L467.676 221.446L441.315 238.982L432.789 240.976L406.479 247.125L367.877 250.256L362.542 257.771L352.57 259.964L348.734 212.366L352.57 145.973L355.638 142.848L362.542 147.857L430.666 170.001L457.459 115.949L459.553 100.71L457.554 97.3408L442.507 105.442L439.234 95.3613L433.614 91.0059L433.965 86.4424L426.447 83.207L433.894 66.5742L431.646 57.4111L432.006 43.7979L439.336 32.3955L471.216 33.9609Z" fill="#EB7333"/>
<path d="M471.773 32.9873L471.267 32.9619L438.81 31.3682L431.016 43.4922L431.008 43.7715L430.648 57.3848L430.645 57.5186L430.676 57.6494L432.842 66.4785L425.122 83.7246L432.914 87.0781L432.578 91.4658L438.379 95.9619L441.928 106.891L457.185 98.6758L458.517 100.921L456.492 115.65L430.155 168.782L363.002 146.954L355.529 141.532L351.596 145.54L347.737 212.309L347.734 212.378L347.738 212.446L351.668 261.187L363.136 258.665L368.424 251.215L406.562 248.122L406.636 248.115L406.708 248.099L441.72 239.915L441.87 239.815L468.471 222.12L498.706 155.185L496.922 154.281L496.908 154.308L496.896 154.335L466.885 220.771L440.911 238.05L406.328 246.133L367.333 249.297L361.951 256.877L353.477 258.74L349.737 212.351L353.548 146.405L355.749 144.162L362.085 148.76L362.234 148.809L431.181 171.219L458.357 116.394L458.43 116.247L458.451 116.085L460.545 100.846L460.593 100.5L460.415 100.199L458.416 96.8301L457.926 96.0059L443.089 103.993L440.187 95.0527L440.092 94.7598L439.848 94.5713L434.654 90.5459L435.019 85.8066L427.776 82.6885L434.809 66.9824L434.948 66.6689L434.867 66.3359L432.651 57.3027L433 44.1025L439.865 33.4229L470.663 34.9346L480.01 49.0527L480.214 49.3604L496.88 54.1406L498.734 52.5928L481.474 47.6416L471.773 32.9873Z" fill="#170800"/>
<path d="M497.804 154.75L467.676 221.45L441.314 238.986L432.789 240.979L406.479 247.128L367.877 250.259L362.542 257.775L352.57 259.967L348.734 212.369L352.57 145.976L355.638 142.85L362.542 147.861M362.542 147.861L360.345 168.528V197.651M362.542 147.861L430.666 170.004M445.394 174.791L430.666 170.004M430.666 170.004L457.459 115.952" stroke="#170800" stroke-width="2"/>
<path d="M526.825 98.9479L533.694 89.3646L527.319 78.4471L532.627 76.076L530.589 61.8451L521.584 48.0353L511.584 41.8604L489.118 13.7854L460.36 19.531L427.845 30.5388L432.947 45.4201L441.552 54.9737L464.811 70.3781L466.953 65.1151L473.547 57.676L480.609 66.4174L477.609 78.2432L486.797 83.3782L487.282 97.9013L488.484 101.118L489.164 102.678L498.334 112.654L508.341 108.724L517.772 108.661L526.825 98.9479Z" fill="#170800"/>
<path d="M511.584 41.8604L489.118 13.7854L460.36 19.531L427.845 30.5388L432.947 45.4201L441.551 54.9737L464.811 70.3781L466.953 65.1151L473.547 57.676L480.609 66.4174L477.609 78.2432L486.797 83.3782L487.282 97.9013L488.484 101.118L489.164 102.678L498.334 112.654L508.341 108.724L517.772 108.661L526.825 98.9479L533.694 89.3646L527.319 78.4471M511.584 41.8604L507.991 56.0253L497.255 78.7339L512.851 69.7369L521.584 48.0353M511.584 41.8604L521.584 48.0353M521.584 48.0353L530.589 61.8451M530.589 61.8451L525.431 74.2228L507.908 86.0462L517.014 86.7298L527.319 78.4471M530.589 61.8451L532.627 76.076L527.319 78.4471" stroke="#EB7333" stroke-width="2"/>
</svg>
